<svg xmlns="http://www.w3.org/2000/svg" viewBox="0 0 282.1 284.4" height="800" width="800">
    <path d="m 128.57619,218.95425 c 0,0 50.35251,11.25444 110.40468,-33.58841 l 17.60239,19.15859 -10.35739,9.63947 11.97516,26.40359 -11.97516,8.86137 -20.11722,-21.61324 -9.57929,5.56705 5.62722,26.40358 -14.42982,6.4669 -15.20651,-25.68566 -11.19567,2.45465 v 30.41583 l -16.04619,1.55619 -7.18342,-28.01995 -12.03535,0.83827 -4.73017,28.79806 h -15.98601 l -1.5562,-30.41443 -13.71049,-0.83828 -11.136895,26.46236 -12.812042,-3.17257 -0.838276,-13.65032 -18.442064,12.81204 H 20.985819 V 262.2409 L 40.863727,243.80023 V 221.04924 H 21.226525 v -5.98689 l 68.07386,-54.54389 H 145.3403 l -75.618339,60.53078 h -22.87135 v 40.35478 L 200.60352,137.76746 213.59609,151.17847 Z M 204.67454,67.655991 261.1343,67.537037 200.84283,116.03387 179.4689,87.89356 Z m -59.21389,92.862469 -23.47031,-26.34341 5.38931,-4.37191 53.82457,1.91726 z m 44.66512,-35.9227 -51.61063,-3.89329 24.72703,-19.81634 z m -191.29198,19.09841 11.794636,18.02223 23.649449,-0.29949 14.070156,-15.44722 z m 45.443216,17.54221 44.665118,-0.59757 15.387046,-12.27465 -43.587534,-1.85568 z m 60.052164,-12.87222 14.18911,1.01881 -5.74758,-8.26241 z m 8.44153,-7.2436 -17.662562,-23.17083 43.407002,2.75274 -11.13549,9.10067 -9.46034,-0.41843 4.07103,4.79034 z m 77.71333,-16.64515 24.90757,1.61637 -8.26241,6.4669 -25.68426,-0.89845 z m 24.90757,1.61637 15.80688,-12.57274 V 91.725278 l 1.43584,-1.13776 v 22.811172 h 20.77637 v 6.10724 l -10.71706,8.50171 z m 27.36081,1.85708 19.33912,1.37707 -0.12036,5.20878 -26.28323,-0.89845 z m -7.06447,5.6874 -22.33256,-0.83827 8.74242,11.67428 z m 26.28323,-8.68224 v 13.9512 l 21.25638,-6.22759 z M 34.277875,161.41691 7.5146311,191.53186 44.277006,161.23638 Z m 179.616305,-10.47774 22.69222,22.33255 23.40874,27.72048 v -8.86137 l -21.13462,-26.76325 1.67795,-2.03481 -6.40673,-9.16086 -2.93326,1.73673 -9.10068,-11.43637 z m -72.92439,-75.199907 -8.20222,-1.976035 2.75413,11.195668 2.99344,-2.993442 2.45465,2.395873 v -4.790346 l -0.35966,-0.358262 0.35966,-0.299484 z m 0,25.086697 h -0.0602 c -6.88534,0 -13.23048,-2.215346 -18.43927,-5.867933 L 122.5893,94.839073 60.741636,146.50848 48.348031,145.96969 110.07675,76.577539 a 29.220693,29.220693 0 0 1 -0.83968,-6.885336 c 0,-15.147739 11.3762,-27.780651 25.86619,-30.594962 V 11.376767 h 5.86653 v 32.15116 h -0.0602 c -13.46979,0 -24.54651,10.238438 -25.92357,23.351365 H 125.7031 V 56.460323 h 5.26896 v 5.088431 l 9.99773,-7.962919 v 3.952071 l -9.99773,7.843965 V 80.409256 H 125.7031 V 70.89014 h -10.83741 c 0.65915,13.830848 12.09412,24.906163 26.04393,24.906163 h 0.0602 z m 0,-21.912725 2.63518,-2.575003 -2.63518,-0.598969 z m 7.78379,-39.576686 c 13.9498,3.173972 23.82998,15.567576 23.82998,30.355654 0,3.053619 -0.48001,5.986884 -1.31829,8.801195 l 8.20363,9.400162 -16.22673,12.99257 -6.22619,-4.490859 c -4.60981,2.814311 -10.11808,4.430689 -16.04619,4.430689 v -5.029657 c 3.35311,0 6.58585,-0.717923 9.5807,-1.855682 l -9.5807,-9.579294 v -4.790346 l 12.81344,12.753265 c 7.90415,-4.430686 13.17171,-12.992573 13.17171,-22.632043 A 26.136287,26.136287 0 0 0 154.08272,47.180514 l -13.11293,10.357392 v -3.952071 l 10.05931,-8.021696 c -3.05362,-1.258113 -6.52567,-2.036212 -10.05931,-2.036212 v -32.15116 h 7.78379 z" />
</svg>